<?xml version="1.0" encoding="utf-8"?>
<!-- Generator: Adobe Illustrator 16.0.0, SVG Export Plug-In . SVG Version: 6.00 Build 0)  -->
<!DOCTYPE svg PUBLIC "-//W3C//DTD SVG 1.1//EN" "http://www.w3.org/Graphics/SVG/1.1/DTD/svg11.dtd">
<svg version="1.1" id="Calque_1" xmlns="http://www.w3.org/2000/svg" xmlns:xlink="http://www.w3.org/1999/xlink" x="0px" y="0px"
	 width="128px" height="128px" viewBox="0 0 128 128" enable-background="new 0 0 128 128" xml:space="preserve">
<g>
	<g>
		<g>
			<g>
				<path fill-rule="evenodd" clip-rule="evenodd" fill="#9079B5" d="M64,45.167c-10.402,0-18.835,8.433-18.835,18.832
					c0,3.401,0.907,6.587,2.482,9.344l32.639-18.792C77.023,48.942,70.957,45.167,64,45.167z"/>
				<path fill-rule="evenodd" clip-rule="evenodd" fill="#9079B5" d="M26.178,63.999c0-20.888,16.93-37.822,37.822-37.822
					c13.99,0,26.199,7.602,32.747,18.895l22.797-13.127c-0.915-1.607-2.279-2.948-4.121-4.014
					c-15.16-8.743-30.336-17.455-45.495-26.207c-4.09-2.359-8.044-2.275-12.102,0.115C51.788,5.4,21.575,22.708,12.573,27.927
					c-3.711,2.148-5.509,5.43-5.509,9.698c-0.008,17.583,0,35.162-0.008,52.748c0.004,2.104,0.441,3.97,1.329,5.573L31.19,82.819
					C28.003,77.277,26.178,70.853,26.178,63.999z"/>
			</g>
		</g>
		<g>
			<g>
				<path fill="#32276F" d="M47.646,73.343c3.246,5.665,9.353,9.487,16.354,9.487c7.041,0,13.184-3.871,16.409-9.599l-16.234-9.404
					L47.646,73.343z"/>
				<path fill="#32276F" d="M64,101.821c-14.034,0-26.286-7.646-32.81-19.002L8.384,95.946c0.919,1.655,2.307,3.039,4.185,4.125
					c9.002,5.219,39.219,22.523,45.253,26.087c4.062,2.395,8.016,2.474,12.109,0.119c15.155-8.755,30.331-17.467,45.495-26.21
					c1.882-1.086,3.271-2.47,4.182-4.121L96.846,82.759C90.326,94.14,78.059,101.821,64,101.821z"/>
			</g>
		</g>
		<path fill="#3A2782" d="M120.937,37.629c0-2.148-0.461-4.049-1.393-5.684L64.175,63.828l55.434,32.118
			c0.891-1.607,1.332-3.473,1.336-5.577C120.944,90.369,120.944,55.212,120.937,37.629z"/>
		<g>
			<path fill="#FFFFFF" d="M80.409,73.232C77.184,78.96,71.041,82.831,64,82.831c-7.001,0-13.107-3.823-16.354-9.487
				c-1.575-2.757-2.482-5.943-2.482-9.344c0-10.398,8.433-18.832,18.835-18.832c6.957,0,13.023,3.775,16.285,9.384l16.462-9.479
				C90.199,33.778,77.99,26.177,64,26.177c-20.892,0-37.822,16.934-37.822,37.822c0,6.854,1.826,13.278,5.012,18.82
				c6.524,11.357,18.776,19.002,32.81,19.002c14.059,0,26.326-7.681,32.846-19.062L80.409,73.232z"/>
		</g>
	</g>
	<g>
		<path fill="#FFFFFF" d="M100.379,68.319h-2.59l-0.558,6.002h-3.87l0.561-6.002h-2.721l-0.561,6.002H86.77l0.562-6.002h-2.486
			l-0.171-3.318h2.991l0.326-3.473h-2.494l-0.171-3.313h2.991l0.564-5.912h3.875l-0.569,5.912h2.722l0.568-5.912h3.866l-0.568,5.912
			h2.08l0.184,3.313h-2.598l-0.322,3.473h2.084L100.379,68.319z M91.854,61.529l-0.322,3.473h2.726l0.317-3.473H91.854z"/>
	</g>
</g>
</svg>
